<?xml version="1.0" encoding="utf-8"?>
<!-- Generator: Adobe Illustrator 16.0.0, SVG Export Plug-In . SVG Version: 6.00 Build 0)  -->
<!DOCTYPE svg PUBLIC "-//W3C//DTD SVG 1.1//EN" "http://www.w3.org/Graphics/SVG/1.1/DTD/svg11.dtd">
<svg version="1.1" id="Layer_1" xmlns="http://www.w3.org/2000/svg" xmlns:xlink="http://www.w3.org/1999/xlink" x="0px" y="0px"
	 width="2909.417px" height="995.8px" viewBox="0 0 2909.417 995.8" enable-background="new 0 0 2909.417 995.8"
	 xml:space="preserve">
<g>
	<path fill-rule="evenodd" clip-rule="evenodd" fill="#E6E7E8" d="M45.283,290.584V797.39h208.033
		C98.08,605.246,213.101,432.931,340.731,430.792h0.922c50.701,0,103.331,7.824,141.858,70.731
		c38.496-62.907,91.994-70.731,142.749-70.731h0.952c126.881,2.139,241.726,174.453,86.474,366.598h208.117V290.584H45.283z"/>
	<path fill-rule="evenodd" clip-rule="evenodd" fill="#ED1C24" d="M483.514,951.963c-413.127-225.7-281.097-493.142-129.466-495.681
		h0.833c45.979,0,93.7,24.703,128.633,81.744c34.906-57.041,83.412-81.744,129.439-81.744h0.86
		C764.56,458.822,896.585,726.263,483.514,951.963z"/>
	<path fill-rule="evenodd" clip-rule="evenodd" fill="#414042" d="M449.382,138.382c0,15.296-12.401,27.695-27.696,27.695l0,0
		c-15.295,0-27.695-12.399-27.695-27.695V78.836c0-15.296,12.4-27.695,27.695-27.695l0,0c15.295,0,27.696,12.399,27.696,27.695
		V138.382z"/>
	<path fill-rule="evenodd" clip-rule="evenodd" fill="#414042" d="M573.092,138.382c0,15.296-12.403,27.695-27.695,27.695l0,0
		c-15.298,0-27.695-12.399-27.695-27.695V78.836c0-15.296,12.397-27.695,27.695-27.695l0,0c15.292,0,27.695,12.399,27.695,27.695
		V138.382z"/>
	<path fill-rule="evenodd" clip-rule="evenodd" fill="#414042" d="M696.798,138.382c0,15.296-12.404,27.695-27.696,27.695l0,0
		c-15.297,0-27.695-12.399-27.695-27.695V78.836c0-15.296,12.398-27.695,27.695-27.695l0,0c15.292,0,27.696,12.399,27.696,27.695
		V138.382z"/>
	<path fill-rule="evenodd" clip-rule="evenodd" fill="#ED1C24" d="M704.138,98.916v47.358c0,19.351-15.687,35.036-35.036,35.036
		c-19.349,0-35.036-15.686-35.036-35.036V98.916h-53.633v47.358c0,19.351-15.688,35.036-35.036,35.036
		c-19.35,0-35.036-15.686-35.036-35.036V98.916h-53.639v47.358c0,19.351-15.688,35.036-35.036,35.036s-35.036-15.686-35.036-35.036
		V98.916h-53.628v47.358c0,19.351-15.687,35.036-35.036,35.036c-19.349,0-35.036-15.686-35.036-35.036V98.916H45.283v191.668
		h876.521V98.916H704.138z"/>
	<path fill-rule="evenodd" clip-rule="evenodd" fill="#414042" d="M325.682,138.382c0,15.296-12.401,27.695-27.696,27.695l0,0
		c-15.295,0-27.695-12.399-27.695-27.695V78.836c0-15.296,12.4-27.695,27.695-27.695l0,0c15.295,0,27.696,12.399,27.696,27.695
		V138.382z"/>
	<g>
		<path fill="#ED1C24" d="M1044.773,600.122c17.857-0.179,35.801-0.627,53.842-1.353c2.164-0.178,3.965,0.455,5.41,1.894
			c1.441,1.447,2.165,3.159,2.165,5.142c-0.184,11.184-0.542,22.367-1.083,33.549c0,1.987-0.77,3.789-2.299,5.412
			c-1.535,1.622-3.383,2.612-5.547,2.975c-35.714,3.424-71.426,3.424-107.141,0c-2.164-0.362-4.016-1.353-5.545-2.975
			c-1.535-1.623-2.301-3.425-2.301-5.412c-2.529-59.521-2.529-119.047,0-178.566c0-1.982,0.766-3.791,2.301-5.412
			c1.529-1.623,3.381-2.523,5.545-2.705c15.693-1.623,31.386-2.523,47.076-2.705c1.984,0,3.695,0.768,5.141,2.299
			c1.441,1.533,2.165,3.381,2.165,5.545C1044.681,505.425,1044.773,552.865,1044.773,600.122z"/>
		<path fill="#ED1C24" d="M1183.972,491.765c-6.406,6.404-14.07,9.604-22.996,9.604c-8.93,0-16.552-3.199-22.864-9.604
			c-6.315-6.402-9.469-14.07-9.469-22.998s3.153-16.547,9.469-22.863c6.313-6.309,13.935-9.469,22.864-9.469
			c8.926,0,16.59,3.16,22.996,9.469c6.4,6.316,9.605,13.936,9.605,22.863S1190.373,485.363,1183.972,491.765z M1128.914,523.826
			c21.281-0.9,42.478-0.9,63.58,0c0.18,40.945-0.181,81.89-1.081,122.832c-20.386,4.328-40.854,4.328-61.416,0
			C1129.091,605.715,1128.732,564.771,1128.914,523.826z"/>
		<path fill="#ED1C24" d="M1213.596,560.623c-0.183-13.707-0.183-27.328,0-40.857c5.228-0.178,10.368-0.355,15.421-0.539
			c0-4.328,0.089-8.564,0.271-12.719c0-9.559,1.305-18.711,3.922-27.457c2.613-8.746,6.266-15.557,10.959-20.432
			c10.28-10.818,25.16-15.689,44.642-14.607c6.31,0.365,12.081,1.082,17.313,2.166c5.049,1.262,10.012,2.527,14.881,3.787
			c0,3.246,0.09,7.486,0.271,12.717c0.178,5.23,0.313,10.867,0.405,16.91c0.089,6.043,0.136,10.236,0.136,12.58
			c-2.887-1.082-5.775-1.896-8.656-2.438c-3.072-0.717-6.047-1.168-8.93-1.354c-3.611-0.178-6.588,0.947-8.93,3.385
			c-2.345,2.434-3.516,8.885-3.516,19.344c0,1.803,0.043,3.07,0.135,3.789c0.09,0.723,0.134,2.074,0.134,4.057
			c9.018,0,17.946,0.184,26.786,0.541c0.178,13.709,0.271,27.42,0.271,41.127c-9.023,0-18.04,0.092-27.058,0.271
			c0,26.694-0.269,55.645-0.81,86.846c-20.387,1.261-40.677,0.9-60.875-1.082c-0.905-30.844-1.354-59.523-1.354-86.035
			C1223.783,560.623,1218.643,560.623,1213.596,560.623z"/>
		<path fill="#ED1C24" d="M1485.367,587.269c-0.094,0.996-0.137,1.942-0.137,2.843c-31.748,0.182-63.49,0.271-95.235,0.271
			c0,0.541-0.046,1.082-0.135,1.623c-0.094,0.543-0.137,1.176-0.137,1.896c0,0.541,0.043,0.947,0.137,1.218
			c0.089,0.27,0.177,0.54,0.271,0.811c0.088,0.271,0.135,0.857,0.135,1.759c0.541,2.704,1.489,5.322,2.84,7.846
			c1.354,2.529,3.291,4.736,5.819,6.629c2.523,1.894,6.041,2.84,10.551,2.84c5.228,0,8.929-1.26,11.092-3.786
			c0.36-0.541,1.173-1.444,2.436-2.705c1.261-1.26,2.343-2.477,3.247-3.653c0.9-1.171,1.623-2.302,2.165-3.384
			c4.506,0.184,12.487,0.541,23.942,1.082c11.453,0.541,20.969,0.906,28.544,1.082c0,1.449-0.316,3.023-0.946,4.735
			c-0.633,1.718-1.217,3.156-1.758,4.33c-0.543,1.174-1.447,2.84-2.707,5.004c-1.264,2.166-2.164,3.7-2.704,4.601
			c-2.528,4.871-7.398,9.652-14.61,14.34c-6.315,4.33-13.71,7.757-22.186,10.28c-8.48,2.526-18.221,3.787-29.221,3.787
			c-12.268,0-23.268-2.164-33.006-6.491c-9.381-4.149-17.41-9.607-24.081-16.369c-6.675-6.764-11.728-14.291-15.15-22.592
			c-3.429-8.295-5.143-16.639-5.143-25.026c0-8.39,1.714-16.817,5.143-25.3c3.423-8.293,8.522-15.828,15.286-22.588
			c6.764-6.766,14.834-12.313,24.214-16.641c9.739-4.326,20.834-6.494,33.28-6.494c12.986,0,24.438,2.168,34.357,6.494
			c9.561,4.152,17.631,9.605,24.218,16.369c6.581,6.762,11.497,14.297,14.745,22.59c3.246,8.66,4.869,18.67,4.869,30.032
			C1485.501,585.424,1485.456,586.282,1485.367,587.269z M1426.791,560.894c0-1.803-0.406-3.695-1.217-5.684
			c-0.813-1.982-1.941-3.789-3.383-5.412c-1.445-1.623-3.294-2.975-5.546-4.057c-2.259-1.082-4.963-1.623-8.116-1.623
			c-3.159,0-5.864,0.584-8.118,1.758c-2.257,1.174-4.059,2.57-5.411,4.193c-1.352,1.621-2.346,3.43-2.977,5.408
			c-0.633,1.99-0.946,3.789-0.946,5.416C1402.982,560.894,1414.887,560.894,1426.791,560.894z"/>
		<path fill="#ED1C24" d="M1739.279,583.347c10.822,9.38,20.74,17.856,29.762,25.435c1.442,1.444,2.207,3.202,2.3,5.274
			c0.089,2.077-0.677,3.922-2.3,5.545c-20.926,21.104-46.266,31.747-76.025,31.926c-34.092,0.178-59.977-10.911-77.65-33.278
			c-14.433-18.397-21.555-41.484-21.374-69.261c-0.181-28.141,6.671-51.227,20.562-69.264
			c17.492-22.363,43.648-33.455,78.463-33.279c25.068,0.182,47.254,8.031,66.555,23.539c1.801,1.266,2.842,2.975,3.113,5.139
			c0.27,2.166-0.316,4.061-1.759,5.686c-8.119,9.381-16.233,18.76-24.35,28.137c-1.267,1.447-2.889,2.258-4.871,2.438
			c-1.987,0.178-3.788-0.273-5.412-1.355c-7.757-5.77-16.956-8.658-27.597-8.658c-6.674,0-12.444,0.904-17.314,2.705
			c-4.871,1.807-8.657,4.154-11.363,7.035c-2.706,2.889-4.871,6.543-6.492,10.957c-1.626,4.424-2.664,8.66-3.111,12.717
			c-0.453,4.057-0.678,8.795-0.678,14.205c0,5.408,0.225,10.145,0.678,14.205c0.447,4.057,1.485,8.297,3.111,12.717
			c1.621,4.42,3.74,8.07,6.357,10.954c2.611,2.889,6.358,5.236,11.229,7.037c4.867,1.804,10.64,2.705,17.314,2.705
			c11.903,0,22.002-4.235,30.302-12.718c1.441-1.441,3.201-2.207,5.275-2.299C1736.074,581.5,1737.832,582.087,1739.279,583.347z"/>
		<path fill="#ED1C24" d="M1944.625,644.224c-19.841,1.082-39.769,1.804-59.792,2.163c0.179-5.23,0.273-10.369,0.273-15.422
			c-3.613,5.95-8.301,10.462-14.069,13.529c-5.953,3.245-13.621,4.776-22.998,4.598c-9.92-0.182-18.938-2.345-27.055-6.491
			c-7.76-4.148-14.34-9.472-19.752-15.963c-5.594-6.672-9.832-14.069-12.717-22.187c-2.887-8.116-4.328-16.322-4.328-24.62
			c0-8.477,1.441-16.863,4.328-25.164c2.885-7.934,7.123-15.238,12.717-21.914c5.412-6.67,11.992-12.082,19.752-16.232
			c8.117-4.148,17.135-6.313,27.055-6.494c9.377-0.176,17.045,1.264,22.998,4.33c5.769,2.889,10.456,6.762,14.069,11.633
			c-0.182-4.688-0.273-9.559-0.273-14.607c20.023,0.361,39.951,1.082,59.792,2.162
			C1948.048,557.199,1948.048,600.757,1944.625,644.224z M1884.294,577.262c0-3.338-0.454-6.497-1.354-9.472
			c-0.904-2.977-2.21-5.68-3.922-8.117c-1.718-2.434-3.971-4.371-6.765-5.818c-2.8-1.438-5.91-2.164-9.334-2.164
			c-3.61,0-6.764,0.727-9.469,2.164c-2.707,1.447-4.917,3.385-6.629,5.818c-1.718,2.438-3.07,5.141-4.06,8.117
			c-0.993,2.975-1.487,6.134-1.487,9.472c0,3.337,0.448,6.491,1.352,9.466c0.9,2.979,2.254,5.683,4.061,8.12
			c1.801,2.434,4.01,4.376,6.629,5.814c2.612,1.447,5.817,2.164,9.604,2.164c3.424,0,6.534-0.717,9.334-2.164
			c2.794-1.438,5.047-3.381,6.765-5.814c1.712-2.438,3.018-5.142,3.922-8.12C1883.84,583.753,1884.294,580.599,1884.294,577.262z"/>
		<path fill="#ED1C24" d="M2035.534,646.387c-20.388,4.69-40.856,4.69-61.418,0c-1.443-65.834-1.443-131.579,0-197.233
			c20.562-4.691,41.03-4.691,61.418,0C2036.972,514.808,2036.972,580.553,2035.534,646.387z"/>
		<path fill="#ED1C24" d="M2209.091,587.269c-0.092,0.996-0.136,1.942-0.136,2.843c-31.747,0.182-63.489,0.271-95.236,0.271
			c0,0.541-0.043,1.082-0.135,1.623c-0.092,0.543-0.136,1.176-0.136,1.896c0,0.541,0.044,0.947,0.136,1.218
			c0.092,0.27,0.179,0.54,0.271,0.811s0.135,0.857,0.135,1.759c0.541,2.704,1.488,5.322,2.846,7.846
			c1.347,2.529,3.283,4.736,5.814,6.629c2.521,1.894,6.043,2.84,10.549,2.84c5.23,0,8.931-1.26,11.094-3.786
			c0.363-0.541,1.174-1.444,2.435-2.705c1.261-1.26,2.343-2.477,3.246-3.653c0.903-1.171,1.628-2.302,2.163-3.384
			c4.512,0.184,12.49,0.541,23.947,1.082c11.451,0.541,20.967,0.906,28.545,1.082c0,1.449-0.319,3.023-0.946,4.735
			c-0.639,1.718-1.218,3.156-1.759,4.33s-1.449,2.84-2.704,5.004c-1.266,2.166-2.169,3.7-2.71,4.601
			c-2.526,4.871-7.395,9.652-14.61,14.34c-6.313,4.33-13.708,7.757-22.184,10.28c-8.482,2.526-18.219,3.787-29.222,3.787
			c-12.269,0-23.266-2.164-33.008-6.491c-9.379-4.149-17.407-9.607-24.076-16.369c-6.676-6.764-11.728-14.291-15.151-22.592
			c-3.43-8.295-5.14-16.639-5.14-25.026c0-8.39,1.71-16.817,5.14-25.3c3.424-8.293,8.52-15.828,15.286-22.588
			c6.762-6.766,14.832-12.313,24.212-16.641c9.742-4.326,20.837-6.494,33.278-6.494c12.988,0,24.439,2.168,34.36,6.494
			c9.558,4.152,17.629,9.605,24.217,16.369c6.583,6.762,11.501,14.297,14.746,22.59c3.245,8.66,4.868,18.67,4.868,30.032
			C2209.226,585.424,2209.183,586.282,2209.091,587.269z M2150.519,560.894c0-1.803-0.411-3.695-1.223-5.684
			c-0.812-1.982-1.937-3.789-3.381-5.412s-3.294-2.975-5.544-4.057c-2.262-1.082-4.966-1.623-8.12-1.623
			c-3.158,0-5.863,0.584-8.113,1.758c-2.256,1.174-4.063,2.57-5.409,4.193c-1.358,1.621-2.348,3.43-2.981,5.408
			c-0.633,1.99-0.946,3.789-0.946,5.416C2126.708,560.894,2138.613,560.894,2150.519,560.894z"/>
		<path fill="#ED1C24" d="M2224.373,515.98c20.566-1.082,41.127-1.801,61.688-2.164c-0.179,6.49-0.271,12.984-0.271,19.479
			c4.333-5.953,10.191-11.094,17.591-15.422c7.573-4.148,17.132-6.129,28.675-5.949c7.936,0.178,14.789,1.533,20.561,4.057
			c5.772,2.525,10.646,5.91,14.611,10.145c3.97,4.24,6.945,9.156,8.931,14.746c1.979,5.773,3.062,12.088,3.245,18.938
			c0.72,28.862-0.092,57.813-2.434,86.85c-20.388,1.261-40.765,1.982-61.147,2.164c0.541-27.233,0.72-54.469,0.541-81.707
			c0-1.623-0.179-3.518-0.541-5.682c-0.362-2.166-1.082-4.148-2.163-5.955c-1.082-1.799-2.662-3.381-4.733-4.732
			c-2.077-1.354-4.738-2.029-7.984-2.029c-2.889,0-5.322,0.725-7.303,2.164c-1.985,1.445-3.613,3.111-4.873,5.006
			c-1.261,1.895-2.121,3.881-2.57,5.953c-0.448,2.074-0.676,3.832-0.676,5.275c0,27.238,0.179,54.474,0.541,81.707
			c-20.561-0.182-41.035-0.903-61.412-2.164C2221.218,603.192,2221.126,559.632,2224.373,515.98z"/>
		<path fill="#ED1C24" d="M2556.077,645.036c-20.388,1.801-40.765,2.883-61.147,3.245c0-5.047,0-10.01,0-14.881
			c-3.786,4.871-8.481,9.109-14.069,12.717c-5.95,3.787-13.528,5.588-22.725,5.41c-9.926-0.179-18.673-2.526-26.246-7.032
			c-7.757-4.33-14.204-9.829-19.344-16.504c-5.144-6.67-9.157-14.159-12.041-22.457c-2.704-8.116-4.148-16.409-4.327-24.891
			c-0.184-8.661,0.99-17.046,3.517-25.165c2.525-8.113,6.361-15.422,11.5-21.912c5.139-6.494,11.587-11.813,19.344-15.963
			c7.751-4.146,16.773-6.221,27.057-6.221c9.018,0,16.504,1.443,22.454,4.326c5.95,2.889,11.095,6.762,15.422,11.633
			c0-27.596-0.184-55.1-0.541-82.518c20.383,0.365,40.673,1.445,60.877,3.248C2559.409,513.724,2559.5,579.382,2556.077,645.036z
			 M2496.823,580.778c0-6.042-1.715-11.587-5.139-16.64c-3.43-5.047-8.481-7.576-15.151-7.576c-3.613,0-6.675,0.678-9.201,2.029
			c-2.526,1.355-4.646,3.156-6.356,5.412c-1.72,2.256-2.98,4.869-3.786,7.844c-0.812,2.979-1.223,5.912-1.223,8.796
			c0,3.245,0.449,6.27,1.357,9.063c0.898,2.799,2.164,5.368,3.787,7.711c1.623,2.348,3.694,4.191,6.221,5.544
			c2.526,1.355,5.588,2.031,9.201,2.031c6.67,0,11.722-2.523,15.151-7.575C2495.108,592.371,2496.823,586.823,2496.823,580.778z"/>
		<path fill="#ED1C24" d="M2734.643,644.224c-19.847,1.082-39.774,1.804-59.794,2.163c0.178-5.23,0.27-10.369,0.27-15.422
			c-3.613,5.95-8.297,10.462-14.069,13.529c-5.95,3.245-13.62,4.776-22.995,4.598c-9.926-0.182-18.938-2.345-27.057-6.491
			c-7.758-4.148-14.341-9.472-19.75-15.963c-5.593-6.672-9.834-14.069-12.717-22.187c-2.889-8.116-4.328-16.322-4.328-24.62
			c0-8.477,1.439-16.863,4.328-25.164c2.883-7.934,7.124-15.238,12.717-21.914c5.409-6.67,11.992-12.082,19.75-16.232
			c8.119-4.148,17.131-6.313,27.057-6.494c9.375-0.176,17.045,1.264,22.995,4.33c5.772,2.889,10.456,6.762,14.069,11.633
			c-0.184-4.688-0.27-9.559-0.27-14.607c20.02,0.361,39.947,1.082,59.794,2.162C2738.067,557.199,2738.067,600.757,2734.643,644.224
			z M2674.308,577.262c0-3.338-0.455-6.497-1.353-9.472c-0.903-2.977-2.213-5.68-3.922-8.117c-1.72-2.434-3.971-4.371-6.767-5.818
			c-2.797-1.438-5.907-2.164-9.332-2.164c-3.613,0-6.767,0.727-9.471,2.164c-2.705,1.447-4.918,3.385-6.627,5.818
			c-1.721,2.438-3.072,5.141-4.063,8.117c-0.99,2.975-1.487,6.134-1.487,9.472c0,3.337,0.448,6.491,1.353,9.466
			c0.903,2.979,2.256,5.683,4.057,8.12c1.807,2.434,4.014,4.376,6.632,5.814c2.612,1.447,5.815,2.164,9.606,2.164
			c3.425,0,6.535-0.717,9.332-2.164c2.796-1.438,5.047-3.381,6.767-5.814c1.709-2.438,3.019-5.142,3.922-8.12
			C2673.853,583.753,2674.308,580.599,2674.308,577.262z"/>
		<path fill="#ED1C24" d="M2763.318,515.708c20.561-1.623,41.127-2.342,61.688-2.164c0,4.15,0,8.209,0,12.174
			c4.685-5.412,11.095-9.197,19.209-11.361c8.292-1.984,17.401-2.613,27.327-1.893c0.898,16.414,1.531,32.736,1.894,48.969
			c-12.625-0.361-22.729,0.99-30.303,4.059c-7.757,3.068-13.707,8.657-17.856,16.773c0,22.187-0.092,44.281-0.271,66.286
			c-20.561,0.359-41.035-0.362-61.417-2.164C2761.062,602.921,2760.97,559.363,2763.318,515.708z"/>
	</g>
</g>
</svg>
