<?xml version="1.0" encoding="utf-8"?>
<!-- Generator: Adobe Illustrator 16.0.0, SVG Export Plug-In . SVG Version: 6.00 Build 0)  -->
<!DOCTYPE svg PUBLIC "-//W3C//DTD SVG 1.1//EN" "http://www.w3.org/Graphics/SVG/1.1/DTD/svg11.dtd">
<svg version="1.1" id="Layer_1" xmlns="http://www.w3.org/2000/svg" xmlns:xlink="http://www.w3.org/1999/xlink" x="0px" y="0px"
	 width="1025.794px" height="995.8px" viewBox="0 0 1025.794 995.8" enable-background="new 0 0 1025.794 995.8"
	 xml:space="preserve">
<g>
	<path fill-rule="evenodd" clip-rule="evenodd" fill="#E6E7E8" d="M74.637,286.932v506.806H282.67
		c-155.236-192.145-40.215-364.459,87.415-366.598h0.922c50.701,0,103.331,7.824,141.858,70.731
		c38.496-62.907,91.994-70.731,142.749-70.731h0.952c126.881,2.139,241.726,174.453,86.474,366.598h208.117V286.932H74.637z"/>
	<path fill-rule="evenodd" clip-rule="evenodd" fill="#ED1C24" d="M512.869,948.311C99.742,722.611,231.772,455.169,383.403,452.63
		h0.833c45.979,0,93.7,24.703,128.633,81.744c34.906-57.041,83.412-81.744,129.439-81.744h0.86
		C793.915,455.169,925.94,722.611,512.869,948.311z"/>
	<path fill-rule="evenodd" clip-rule="evenodd" fill="#414042" d="M478.737,134.73c0,15.296-12.401,27.695-27.696,27.695l0,0
		c-15.295,0-27.695-12.399-27.695-27.695V75.184c0-15.296,12.4-27.695,27.695-27.695l0,0c15.295,0,27.696,12.399,27.696,27.695
		V134.73z"/>
	<path fill-rule="evenodd" clip-rule="evenodd" fill="#414042" d="M602.447,134.73c0,15.296-12.403,27.695-27.695,27.695l0,0
		c-15.298,0-27.695-12.399-27.695-27.695V75.184c0-15.296,12.397-27.695,27.695-27.695l0,0c15.292,0,27.695,12.399,27.695,27.695
		V134.73z"/>
	<path fill-rule="evenodd" clip-rule="evenodd" fill="#414042" d="M726.153,134.73c0,15.296-12.404,27.695-27.696,27.695l0,0
		c-15.297,0-27.695-12.399-27.695-27.695V75.184c0-15.296,12.398-27.695,27.695-27.695l0,0c15.292,0,27.696,12.399,27.696,27.695
		V134.73z"/>
	<path fill-rule="evenodd" clip-rule="evenodd" fill="#ED1C24" d="M733.493,95.264v47.358c0,19.351-15.687,35.036-35.036,35.036
		c-19.349,0-35.036-15.686-35.036-35.036V95.264h-53.633v47.358c0,19.351-15.688,35.036-35.036,35.036
		c-19.35,0-35.036-15.686-35.036-35.036V95.264h-53.639v47.358c0,19.351-15.688,35.036-35.036,35.036s-35.036-15.686-35.036-35.036
		V95.264h-53.628v47.358c0,19.351-15.687,35.036-35.036,35.036c-19.349,0-35.036-15.686-35.036-35.036V95.264H74.637v191.668
		h876.521V95.264H733.493z"/>
	<path fill-rule="evenodd" clip-rule="evenodd" fill="#414042" d="M355.037,134.73c0,15.296-12.401,27.695-27.696,27.695l0,0
		c-15.295,0-27.695-12.399-27.695-27.695V75.184c0-15.296,12.4-27.695,27.695-27.695l0,0c15.295,0,27.696,12.399,27.696,27.695
		V134.73z"/>
</g>
</svg>
